<?xml version="1.0" encoding="UTF-8"?><svg id="Layer_1" xmlns="http://www.w3.org/2000/svg" viewBox="0 0 1000 1000"><defs><style>.cls-1{fill:#fff;}.cls-2{fill:#231f20;}.cls-3{fill:#414042;}.cls-4{fill:#6d6e71;}</style></defs><rect class="cls-4" x="0" width="1000" height="1000"/><rect class="cls-3" x="142.86" y="142.86" width="714.29" height="714.29"/><g><rect class="cls-2" x="285.71" y="285.71" width="25.71" height="428.57"/><rect class="cls-2" x="326" y="285.71" width="25.71" height="428.57"/><rect class="cls-2" x="366.29" y="285.71" width="25.71" height="428.57"/><rect class="cls-2" x="406.57" y="285.71" width="25.71" height="428.57"/><rect class="cls-2" x="446.86" y="285.71" width="25.71" height="428.57"/><rect class="cls-2" x="487.15" y="285.71" width="25.71" height="428.57"/><rect class="cls-2" x="527.43" y="285.71" width="25.71" height="428.57"/><rect class="cls-2" x="567.72" y="285.71" width="25.71" height="428.57"/><rect class="cls-2" x="608" y="285.71" width="25.71" height="428.57"/><rect class="cls-2" x="648.29" y="285.71" width="25.71" height="428.57"/><rect class="cls-2" x="688.58" y="285.71" width="25.71" height="428.57"/></g><g><rect class="cls-1" x="311.42" y="285.71" width="14.58" height="428.57"/><rect class="cls-1" x="351.71" y="285.71" width="14.58" height="428.57"/><rect class="cls-1" x="392" y="285.71" width="14.58" height="428.57"/><rect class="cls-1" x="432.28" y="285.71" width="14.58" height="428.57"/><rect class="cls-1" x="472.57" y="285.71" width="14.58" height="428.57"/><rect class="cls-1" x="512.85" y="285.71" width="14.58" height="428.57"/><rect class="cls-1" x="553.14" y="285.71" width="14.58" height="428.57"/><rect class="cls-1" x="593.43" y="285.71" width="14.58" height="428.57"/><rect class="cls-1" x="633.71" y="285.71" width="14.58" height="428.57"/><rect class="cls-1" x="674" y="285.71" width="14.58" height="428.57"/></g></svg>