<?xml version="1.0" encoding="UTF-8"?><svg id="Layer_1" xmlns="http://www.w3.org/2000/svg" xmlns:xlink="http://www.w3.org/1999/xlink" viewBox="0 0 1000 1000"><defs><style>.cls-1{fill:none;}.cls-2{clip-path:url(#clippath);}.cls-3{fill:#fff;}.cls-4{fill:#231f20;}.cls-5{fill:#414042;}.cls-6{fill:#6d6e71;}</style><clipPath id="clippath"><rect class="cls-1" x="428.57" y="428.57" width="142.86" height="142.86"/></clipPath></defs><rect class="cls-6" width="1000" height="1000"/><rect class="cls-5" x="142.86" y="142.86" width="714.29" height="714.29"/><g><rect class="cls-4" x="285.71" y="285.71" width="25.71" height="428.57"/><rect class="cls-4" x="326" y="285.71" width="25.71" height="428.57"/><rect class="cls-4" x="366.29" y="285.71" width="25.71" height="428.57"/><rect class="cls-4" x="406.57" y="285.71" width="25.71" height="428.57"/><rect class="cls-4" x="446.86" y="285.71" width="25.71" height="428.57"/><rect class="cls-4" x="487.15" y="285.71" width="25.71" height="428.57"/><rect class="cls-4" x="527.43" y="285.71" width="25.71" height="428.57"/><rect class="cls-4" x="567.72" y="285.71" width="25.71" height="428.57"/><rect class="cls-4" x="608" y="285.71" width="25.71" height="428.57"/><rect class="cls-4" x="648.29" y="285.71" width="25.71" height="428.57"/><rect class="cls-4" x="688.58" y="285.71" width="25.71" height="428.57"/></g><g><rect class="cls-3" x="311.42" y="285.71" width="14.58" height="428.57"/><rect class="cls-3" x="351.71" y="285.71" width="14.58" height="428.57"/><rect class="cls-3" x="392" y="285.71" width="14.58" height="428.57"/><rect class="cls-3" x="432.28" y="285.71" width="14.58" height="428.57"/><rect class="cls-3" x="472.57" y="285.71" width="14.58" height="428.57"/><rect class="cls-3" x="512.85" y="285.71" width="14.58" height="428.57"/><rect class="cls-3" x="553.14" y="285.71" width="14.58" height="428.57"/><rect class="cls-3" x="593.43" y="285.71" width="14.58" height="428.57"/><rect class="cls-3" x="633.71" y="285.71" width="14.58" height="428.57"/><rect class="cls-3" x="674" y="285.71" width="14.58" height="428.57"/></g><g class="cls-2"><g><rect class="cls-3" x="358.57" y="339.29" width="10.93" height="321.43"/><rect class="cls-3" x="388.78" y="339.29" width="10.93" height="321.43"/><rect class="cls-3" x="419" y="339.29" width="10.93" height="321.43"/><rect class="cls-3" x="449.21" y="339.29" width="10.93" height="321.43"/><rect class="cls-3" x="479.43" y="339.29" width="10.93" height="321.43"/><rect class="cls-3" x="509.64" y="339.29" width="10.93" height="321.43"/><rect class="cls-3" x="539.86" y="339.29" width="10.93" height="321.43"/><rect class="cls-3" x="570.07" y="339.29" width="10.93" height="321.43"/><rect class="cls-3" x="600.28" y="339.29" width="10.93" height="321.43"/><rect class="cls-3" x="630.5" y="339.29" width="10.93" height="321.43"/></g></g></svg>